<svg width="95" height="61" viewBox="0 0 95 61" fill="none" xmlns="http://www.w3.org/2000/svg">
<path d="M18.9537 10.689C18.8756 10.8772 18.8134 11.0715 18.7675 11.27C18.6949 11.6536 18.8625 11.8864 19.2554 11.9441C19.4824 11.9677 19.7106 11.9764 19.9388 11.9702H25.3389C25.7035 11.9684 26.0675 12.0002 26.4263 12.0651C28.2084 12.3929 28.808 13.6386 29.0333 14.7838C29.2065 15.8001 29.1324 16.8431 28.8173 17.8246C28.6832 18.2827 28.5212 18.7352 28.3499 19.1821C26.3636 24.355 24.3774 29.528 22.3912 34.7009C20.7388 39.0011 19.0872 43.3007 17.4361 47.5997C15.8955 51.5846 14.3549 55.5633 12.8143 59.5358C12.7492 59.7071 12.6747 59.8747 12.6039 60.0423C12.4999 60.336 12.3033 60.588 12.0437 60.7602C11.7841 60.9325 11.4756 61.0158 11.1645 60.9975H10.8908L1.16875 60.9864C0.895378 61.0103 0.619941 60.9825 0.356874 60.9044C0.0756958 60.7983 -0.0602434 60.6046 0.0254135 60.3216C0.120351 60.0175 0.239907 59.7217 0.382923 59.4371C1.38846 57.3888 2.40517 55.3405 3.41071 53.2921C5.81531 48.3985 8.21681 43.5043 10.6152 38.6094C12.5816 34.5935 14.5461 30.5769 16.5088 26.5598C17.6037 24.342 18.7116 22.1075 19.8103 19.8729C19.9174 19.6716 20.0077 19.4617 20.0803 19.2454C20.1466 19.0714 20.1423 18.8783 20.0682 18.7075C19.994 18.5366 19.856 18.4016 19.6836 18.3311C19.3124 18.1538 18.9151 18.0375 18.5068 17.9866C17.8513 17.8879 17.1922 17.873 16.5293 17.8377C15.8683 17.8184 15.2115 17.7272 14.5703 17.5658C13.8361 17.3822 13.1622 17.0106 12.6151 16.4876C11.6841 15.5659 11.3638 14.4393 11.5556 13.1712C11.6376 12.6051 11.8192 12.0579 12.0918 11.5549C13.2743 9.39302 14.3748 7.18643 15.6913 5.10087C16.14 4.3851 16.6267 3.69389 17.1493 3.0302C17.6256 2.41607 18.1853 1.87142 18.8122 1.41203C19.9648 0.6914 20.1157 0.501469 21.516 0.194222C22.1918 0.0712476 22.8773 0.00892953 23.5643 0.00801164H67.3107C67.6591 -0.0201639 68.0095 0.0261714 68.3386 0.143942C68.6216 0.229598 68.7315 0.57223 68.6682 0.840373C68.6202 1.01708 68.558 1.18958 68.482 1.35617C68.1803 2.07122 67.8731 2.78441 67.5677 3.49573C67.523 3.60001 67.4709 3.70243 67.4262 3.8067C67.353 4.00101 67.2194 4.16676 67.0452 4.27969C66.8709 4.39261 66.6651 4.44677 66.4579 4.43423C66.3219 4.43423 66.1841 4.43423 66.0463 4.43423C59.5662 4.43423 54.937 4.43423 48.455 4.43423C40.2158 4.43423 31.9766 4.42741 23.7375 4.41375C23.3501 4.41375 22.961 4.41375 22.5736 4.42678C21.786 4.42678 21.0411 5.07666 20.6985 6.06357" fill="white"/>
<path d="M46.0649 36.1028C45.58 36.1029 45.1028 36.2243 44.6768 36.4558C44.2507 36.6874 43.8894 37.0218 43.6255 37.4286L43.3481 37.8569C41.2867 41.0895 39.2514 44.3407 37.0765 47.497C35.665 49.5453 34.2014 51.5582 32.5963 53.4557C30.4344 56.0143 27.9037 58.111 24.8517 59.5429C23.4391 60.1937 21.9295 60.6088 20.3827 60.7719C18.4927 60.9898 16.8559 60.906 14.964 60.9023C14.8268 60.9031 14.6902 60.8849 14.558 60.8483C14.4598 60.8161 14.3775 60.7478 14.3278 60.6572C14.278 60.5667 14.2645 60.4606 14.2899 60.3604C14.3976 59.9807 14.5276 59.6076 14.6791 59.2432C14.8932 58.6957 14.964 58.597 15.1465 58.1259C15.571 57.031 15.7721 56.7963 16.7777 56.7963H19.906C21.6061 56.7963 22.8332 56.2563 24.1162 55.4426C24.4811 55.2123 24.8341 54.9637 25.1739 54.6978C26.8598 53.331 28.3864 51.7788 29.7249 50.0704C31.9054 47.3424 33.6092 44.3314 35.0337 41.1547C38.1304 34.2425 40.9608 27.2168 43.8098 20.2023C44.5733 18.3215 45.3479 16.4445 46.1151 14.5657C46.2866 14.1176 46.5071 13.6898 46.7724 13.2901C47.3315 12.4706 48.1638 11.8765 49.1206 11.6142C49.7585 11.4335 50.4183 11.342 51.0814 11.3424H63.6077C63.9951 11.3424 64.3842 11.3424 64.7716 11.3424C65.0359 11.3405 65.2948 11.2665 65.5203 11.1284C65.7457 10.9902 65.9291 10.7931 66.0508 10.5584C66.1644 10.361 66.2501 10.1469 66.3432 9.9402C67.088 8.27548 67.8329 6.60889 68.5907 4.94789C69.0619 3.90884 69.5479 2.87723 70.0283 1.84376C70.086 1.719 70.1437 1.59424 70.2145 1.47134C70.3665 1.16122 70.6066 0.902752 70.9046 0.728226C71.2027 0.553701 71.5455 0.470848 71.8904 0.490014C74.0355 0.508635 76.1732 0.506774 78.3277 0.508636C78.7167 0.503879 79.1036 0.56689 79.471 0.694846C80.1824 0.951817 80.4542 1.46948 80.2717 2.20874C80.1588 2.60281 79.9908 2.97894 79.7727 3.326C79.2345 4.25705 78.7001 5.18811 78.162 6.11916C76.3657 9.22267 74.5656 12.3206 72.7619 15.4129C72.5132 15.8486 72.2397 16.2695 71.9425 16.6736C70.7936 18.2117 69.587 18.5655 67.3003 18.5655C65.6486 18.5655 65.7194 18.5655 64.8181 18.5655C61.349 18.5655 59.7327 18.5934 56.2636 18.6064C55.5556 18.6056 54.8506 18.6983 54.1669 18.882C52.9862 19.2024 51.9652 19.9469 51.2992 20.9732C51.004 21.4077 50.7591 21.8743 50.5693 22.3642C50.0106 23.811 49.4632 25.2616 48.9139 26.7122C48.8643 26.8401 48.8238 26.9714 48.7928 27.1051C48.6904 27.5725 48.8841 27.8499 49.3738 27.9095C49.6009 27.9321 49.8291 27.9409 50.0572 27.9356L55.7403 27.9244C56.6304 27.9244 57.5205 27.9244 58.4106 27.9244C58.6623 27.9076 58.9149 27.9379 59.1554 28.0138C59.3417 28.1013 59.459 28.2372 59.3919 28.4365C59.2877 28.7381 59.1648 29.0342 59.0344 29.3247C58.5652 30.3638 58.0829 31.3972 57.6174 32.4382C57.2449 33.2519 56.9116 34.0712 56.5578 34.8887C56.4922 35.0586 56.417 35.2246 56.3325 35.3859C56.2239 35.6015 56.0584 35.7832 55.8539 35.9116C55.6494 36.0399 55.4138 36.1099 55.1724 36.1139C54.9862 36.1139 54.8 36.1139 54.6249 36.1139H50.3104" fill="white"/>
<path d="M86.8875 4.72096H86.044V1.04516H84.7554V0.320801H88.1779V1.04143H86.8875V4.72096Z" fill="white"/>
<path d="M92.5668 4.72096H91.8108L90.4161 1.03398H90.403L90.4738 4.72096H89.6284V0.320801H90.9822L92.1795 3.58507H92.2018L93.3749 0.320801H94.7585V4.71723H93.9131L93.9839 1.01164H93.9541L92.5668 4.72096Z" fill="white"/>
</svg>
